# xmcd
#
# Track frame offsets:
#	150
#	25780
#	37097
#	61550
#	72352
#	92902
#	113755
#	128302
#	152755
#	170297
#	185077
#	201502
#
# Disc length: 2972 seconds
#
# Revision: 1
# Processed by: cddbd v1.4PL0 Copyright (c) Steve Scherf et al.
# Submitted via: audiograbber 1.82.02
#
DISCID=9d0b9a0c
DTITLE=The Boys are Lonely - Blue
DYEAR=1992
DGENRE=Blues
TTITLE0=Shadow On My Soul
TTITLE1=Don't Like Myself
TTITLE2=Dawn
TTITLE3=Goodbye My Man
TTITLE4=Seven Up
TTITLE5=Phone Call
TTITLE6=Down, Down, Down
TTITLE7=Fun, Fun, Fun
TTITLE8=Hanna
TTITLE9=Stray Around
TTITLE10=Next Day Will Be A Nice Day
TTITLE11=Boys Are Lonely
EXTD=Produced byStefan Hadler, Hans-Georg Stubbe and THE BOYS ARE LONELY\nRockw
EXTD=erk Records\n
EXTT0=
EXTT1=
EXTT2=
EXTT3=
EXTT4=
EXTT5=
EXTT6=
EXTT7=
EXTT8=
EXTT9=
EXTT10=
EXTT11=
PLAYORDER=
